Coordinates
version=1
nRows=13
nColumns=40
inDegrees=yes

Units are S.I. units (second, meters, Newtons, ...)
If the header above contains a line with 'inDegrees', this indicates whether rotational values are in degrees (yes) or radians (no).

endheader
time	pelvis_tilt	pelvis_list	pelvis_rotation	pelvis_tx	pelvis_ty	pelvis_tz	hip_flexion_r	hip_adduction_r	hip_rotation_r	knee_angle_r	knee_angle_r_beta	ankle_angle_r	subtalar_angle_r	mtp_angle_r	hip_flexion_l	hip_adduction_l	hip_rotation_l	knee_angle_l	knee_angle_l_beta	ankle_angle_l	subtalar_angle_l	mtp_angle_l	lumbar_extension	lumbar_bending	lumbar_rotation	arm_flex_r	arm_add_r	arm_rot_r	elbow_flex_r	pro_sup_r	wrist_flex_r	wrist_dev_r	arm_flex_l	arm_add_l	arm_rot_l	elbow_flex_l	pro_sup_l	wrist_flex_l	wrist_dev_l
      1.25000000	      4.43698486	     -5.83475711	      1.23266425	     -0.26250429	      0.99203241	     -0.99861478	     37.85807515	     -0.06137253	      1.69724150	     15.12948770	      0.26405937	    -16.70138342	      0.00000000	      0.00000000	      3.51269389	     -2.56942562	     -4.20161286	     15.60021464	      0.27227511	     -4.07362535	      0.00000000	      0.00000000	     -5.37112535	      3.44553880	      2.28246499	     89.06539969	    -15.42562772	     36.60444376	     19.75262422	     86.08671270	      0.00000000	      0.00000000	     89.76835125	    -35.55420834	     35.88813466	     35.45905168	     86.53288168	      0.00000000	      0.00000000
      1.25500000	      4.40406124	     -5.83506853	      1.26823343	     -0.26272920	      0.99191339	     -0.99852125	     37.90313956	     -0.07474870	      1.70911592	     15.13388809	      0.26413618	    -16.70089659	      0.00000000	      0.00000000	      3.67038798	     -2.59501757	     -4.14736869	     15.78556326	      0.27551005	     -4.05688319	      0.00000000	      0.00000000	     -5.37722621	      3.42825047	      2.28292427	     89.10184565	    -15.42587030	     36.59052354	     19.73507185	     86.06319803	      0.00000000	      0.00000000	     89.76796341	    -35.55707362	     35.87004192	     35.49596682	     86.53808619	      0.00000000	      0.00000000
      1.26000000	      4.41146065	     -5.86432750	      1.34566051	     -0.26296714	      0.99181242	     -0.99849345	     37.89051363	     -0.08010052	      1.64669954	     15.10121972	      0.26356601	    -16.72722841	      0.00000000	      0.00000000	      3.84189636	     -2.64902878	     -4.12585421	     16.09355511	      0.28088552	     -3.99130270	      0.00000000	      0.00000000	     -5.41651449	      3.43118368	      2.29761751	     89.09446802	    -15.48573978	     36.52186446	     19.77040769	     86.01490568	      0.00000000	      0.00000000	     89.77340776	    -35.45240400	     35.81998918	     35.53548208	     86.55890904	      0.00000000	      0.00000000
      1.26500000	      4.40269042	     -5.88686206	      1.41269329	     -0.26317513	      0.99169446	     -0.99850475	     37.89452453	     -0.09770716	      1.61096792	     15.07993020	      0.26319443	    -16.70250349	      0.00000000	      0.00000000	      3.98832078	     -2.69097524	     -4.03584890	     16.29512657	      0.28440361	     -3.95245248	      0.00000000	      0.00000000	     -5.46306000	      3.45046475	      2.22851730	     89.15449648	    -15.46318687	     36.54265581	     19.78787098	     86.02280762	      0.00000000	      0.00000000	     89.77368409	    -35.54486539	     35.84028132	     35.64494584	     86.51861906	      0.00000000	      0.00000000
      1.27000000	      4.33349693	     -5.94619555	      1.49080491	     -0.26345882	      0.99145515	     -0.99841725	     37.95707074	     -0.07072065	      1.61254190	     15.02801707	      0.26228838	    -16.74331008	      0.00000000	      0.00000000	      4.28461551	     -2.78687887	     -3.92184229	     16.66254575	      0.29081629	     -3.83262998	      0.00000000	      0.00000000	     -5.43099083	      3.49215004	      2.14689566	     89.14895208	    -15.38647377	     36.30357791	     19.78004185	     86.03596767	      0.00000000	      0.00000000	     89.77876722	    -35.57591340	     35.81040920	     35.68271108	     86.50729014	      0.00000000	      0.00000000
      1.27500000	      4.31735066	     -5.98854087	      1.54214616	     -0.26382320	      0.99126687	     -0.99825965	     37.98529340	     -0.03844137	      1.59757222	     15.00096500	      0.26181623	    -16.72211825	      0.00000000	      0.00000000	      4.52230613	     -2.87333781	     -3.85890747	     17.02671668	      0.29717227	     -3.79198319	      0.00000000	      0.00000000	     -5.47489853	      3.50721332	      2.15433430	     89.20040597	    -15.44368786	     36.44563777	     19.82191271	     85.94560765	      0.00000000	      0.00000000	     89.78061945	    -35.50651066	     35.66658621	     35.67518224	     86.54331206	      0.00000000	      0.00000000
      1.28000000	      4.30048753	     -6.02063519	      1.60869504	     -0.26409689	      0.99108676	     -0.99814422	     38.01230743	     -0.02904467	      1.54965092	     14.98700460	      0.26157258	    -16.71755393	      0.00000000	      0.00000000	      4.73017620	     -2.94232688	     -3.75331100	     17.34586264	      0.30274241	     -3.72484844	      0.00000000	      0.00000000	     -5.50423459	      3.51814579	      2.09116518	     89.22141205	    -15.40111217	     36.34219150	     19.80776997	     85.94627475	      0.00000000	      0.00000000	     89.78429304	    -35.55012903	     35.67261126	     35.72962931	     86.50420710	      0.00000000	      0.00000000
      1.28500000	      4.28396096	     -6.02462332	      1.69363142	     -0.26445606	      0.99089070	     -0.99801892	     38.05767988	     -0.05711149	      1.53678119	     15.00393902	      0.26186814	    -16.70619400	      0.00000000	      0.00000000	      4.96090432	     -2.97930819	     -3.63334339	     17.67776381	      0.30853518	     -3.63680220	      0.00000000	      0.00000000	     -5.54616081	      3.49110505	      2.00225734	     89.24360009	    -15.34574114	     36.12969167	     19.80785867	     86.00526813	      0.00000000	      0.00000000	     89.78812128	    -35.62650846	     35.70202016	     35.84713720	     86.47964659	      0.00000000	      0.00000000
      1.29000000	      4.24791307	     -6.07662250	      1.77499762	     -0.26489402	      0.99061599	     -0.99786510	     38.11265386	     -0.03579590	      1.49284121	     14.97841987	      0.26142274	    -16.72495989	      0.00000000	      0.00000000	      5.24263891	     -3.07052919	     -3.51637508	     18.06361846	      0.31526962	     -3.53923822	      0.00000000	      0.00000000	     -5.58541970	      3.51177408	      1.97737158	     89.28203184	    -15.40234462	     36.33779610	     19.89953210	     85.72753553	      0.00000000	      0.00000000	     89.79077603	    -35.56216565	     35.45620667	     35.87487591	     86.59007806	      0.00000000	      0.00000000
      1.29500000	      4.17660474	     -6.14360147	      1.83313513	     -0.26521315	      0.99027792	     -0.99768180	     38.16976067	      0.01283456	      1.47197720	     14.88974902	      0.25987515	    -16.74652753	      0.00000000	      0.00000000	      5.61333565	     -3.19655849	     -3.51452154	     18.58521763	      0.32437324	     -3.41533882	      0.00000000	      0.00000000	     -5.56524013	      3.55976262	      1.88501945	     89.29508557	    -15.26546565	     35.91935437	     19.86381312	     85.95162471	      0.00000000	      0.00000000	     89.79617612	    -35.67951691	     35.55581561	     35.96738618	     86.47071169	      0.00000000	      0.00000000
      1.30000000	      4.12418496	     -6.17231233	      1.88198832	     -0.26562181	      0.98988521	     -0.99747349	     38.26931923	      0.03562863	      1.49149373	     14.90468634	      0.26013585	    -16.76703896	      0.00000000	      0.00000000	      5.91527362	     -3.27009282	     -3.40952654	     18.98480281	      0.33134732	     -3.27464987	      0.00000000	      0.00000000	     -5.58202226	      3.55467634	      1.85509892	     89.32291675	    -15.25683571	     35.91511170	     19.92506440	     85.95019844	      0.00000000	      0.00000000	     89.80017009	    -35.69681225	     35.46684749	     36.04859551	     86.44782536	      0.00000000	      0.00000000
      1.30500000	      4.11780813	     -6.20011337	      1.95432468	     -0.26594028	      0.98960159	     -0.99738285	     38.30136401	      0.03607827	      1.40184913	     14.89614048	      0.25998670	    -16.76175803	      0.00000000	      0.00000000	      6.19720754	     -3.34987679	     -3.41362811	     19.45229608	      0.33950661	     -3.23099760	      0.00000000	      0.00000000	     -5.63974146	      3.55310643	      1.83848921	     89.34940401	    -15.26260456	     35.79895789	     19.94536319	     85.91655494	      0.00000000	      0.00000000	     89.80274558	    -35.64906097	     35.35090636	     36.07569189	     86.43073803	      0.00000000	      0.00000000
      1.31000000	      4.05433028	     -6.22708920	      1.97506887	     -0.26631501	      0.98915989	     -0.99712329	     38.41855663	      0.06976453	      1.40707527	     14.90976765	      0.26022454	    -16.78533460	      0.00000000	      0.00000000	      6.53738034	     -3.43609760	     -3.42024673	     19.90920930	      0.34748125	     -3.12229214	      0.00000000	      0.00000000	     -5.64052304	      3.55225661	      1.83805019	     89.37100370	    -15.26724022	     35.80631655	     20.01584645	     85.85648447	      0.00000000	      0.00000000	     89.80688988	    -35.67922477	     35.29821671	     36.14522324	     86.43058469	      0.00000000	      0.00000000
